<svg xmlns="http://www.w3.org/2000/svg" width="137" height="24" viewBox="0 0 136 24" xmlns:v="https://vecta.io/nano"><path d="M75.832 7.086c-.707-2.039-2.629-3.406-4.781-3.402h-.059c-1.383-.004-2.703.563-3.66 1.563a5.05 5.05 0 0 0-1.672-1.156c-.629-.269-1.305-.406-1.988-.406h-.023c-1.215-.004-2.387.43-3.309 1.227V4.52a.74.74 0 0 0-.23-.492.75.75 0 0 0-.5-.207h-3.402c-.418 0-.754.34-.754.758v18.469a.76.76 0 0 0 .219.535c.145.141.336.219.535.215h3.391a.74.74 0 0 0 .73-.648V9.758a1.26 1.26 0 0 1 .375-.789c.215-.211.5-.336.797-.352h.629a1.25 1.25 0 0 1 1.059.723 1.26 1.26 0 0 1 .113.547v13.195a.76.76 0 0 0 .75.758h3.406a.75.75 0 0 0 .746-.719V9.871a1.27 1.27 0 0 1 .141-.598 1.24 1.24 0 0 1 .414-.461 1.33 1.33 0 0 1 .625-.211h.625c.668.035 1.191.598 1.176 1.27v13.18a.79.79 0 0 0 .055.285.73.73 0 0 0 .164.246.78.78 0 0 0 .242.164c.094.035.191.055.289.055h3.41c.203.008.402-.074.543-.219a.69.69 0 0 0 .16-.246c.039-.09.059-.187.059-.285V8.867c.031-.609-.055-1.219-.254-1.797M52.871 3.879h-1.949V.727a.71.71 0 0 0-.051-.27.75.75 0 0 0-.148-.227.62.62 0 0 0-.227-.148.65.65 0 0 0-.27-.051.72.72 0 0 0-.129.012c-2.152.594-1.707 3.578-5.645 3.836h-.391c-.055 0-.109.004-.16.02a.73.73 0 0 0-.422.273.75.75 0 0 0-.164.469v3.398a.75.75 0 0 0 .219.531c.141.141.332.223.527.227h2.051v14.422a.72.72 0 0 0 .051.273.83.83 0 0 0 .16.242.67.67 0 0 0 .238.164c.086.035.18.055.273.059h3.352a.76.76 0 0 0 .52-.223.73.73 0 0 0 .211-.523V8.797h1.906c.098-.004.191-.023.285-.062a.72.72 0 0 0 .242-.164.64.64 0 0 0 .16-.242.66.66 0 0 0 .055-.289V4.641a.74.74 0 0 0-.215-.535.73.73 0 0 0-.527-.215" fill="rgb(0%,72.156863%,96.078431%)"/><path d="M40.668 3.879h-3.391c-.203-.004-.398.074-.543.219s-.223.332-.223.531v7.031c-.004.438-.359.789-.793.789H34.3a.8.8 0 0 1-.305-.062c-.195-.078-.352-.234-.43-.43a.76.76 0 0 1-.062-.305l-.016-7.023a.75.75 0 0 0-.746-.75h-3.367c-.203-.004-.398.074-.543.219a.75.75 0 0 0-.219.531v7.711c0 2.938 2.078 5.012 5 5.012l2.262.012a.8.8 0 0 1 .504 1.316.79.79 0 0 1-.492.273h-.059l-4.957.02a.75.75 0 0 0-.754.75v3.387a.75.75 0 0 0 .059.289.73.73 0 0 0 .164.246c.07.07.152.121.242.16a.79.79 0 0 0 .289.055h5.543c2.93 0 5.004-2.086 5.004-5.016V4.621c.004-.203-.074-.402-.219-.547a.75.75 0 0 0-.531-.219M8.16 3.879H.73c-.191 0-.379.078-.516.215S0 4.418 0 4.613V23.09c-.004.188.063.375.191.516a.73.73 0 0 0 .492.238H4.14c.098 0 .195-.02.289-.055a.77.77 0 0 0 .402-.406c.039-.094.063-.191.063-.289l.016-5.184h3.25c2.719 0 4.609-1.887 4.609-4.621V8.508c0-2.727-1.906-4.637-4.609-4.637zm-.309 6.23v2.102c0 .102-.02.207-.059.301s-.102.188-.176.262a.72.72 0 0 1-.27.172c-.098.043-.199.063-.305.063H4.895V8.797h2.152a.8.8 0 0 1 .305.063.78.78 0 0 1 .266.18.83.83 0 0 1 .172.273c.039.094.059.199.063.305zm13.516-6.211h-4.703c-.402-.012-.738.305-.754.707v3.188c.008.203.094.398.246.539a.76.76 0 0 0 .551.207h4.484a.79.79 0 0 1 .676.719v.441a.78.78 0 0 1-.207.469.75.75 0 0 1-.445.234h-2.223c-2.945 0-5.059 1.953-5.059 4.719v3.957c0 2.746 1.809 4.688 4.742 4.688h6.148a1.94 1.94 0 0 0 2-1.867V8.996c0-3.129-1.609-5.105-5.457-5.105zm.547 14.18v.531c-.004.043-.008.086-.02.125-.004.039-.016.074-.027.109a.79.79 0 0 1-.301.375.76.76 0 0 1-.457.137h-1.41a.78.78 0 0 1-.543-.207.8.8 0 0 1-.246-.547V15.71a.79.79 0 0 1 .246-.543c.148-.141.344-.215.543-.211h1.41a.77.77 0 0 1 .563.203.79.79 0 0 1 .254.547zm0 0" fill="rgb(0.392157%,16.470588%,44.705882%)"/><path d="M95.262.039h28.809C130.66.039 136 5.395 136 12s-5.34 11.961-11.93 11.961H95.262c-6.59 0-11.934-5.355-11.934-11.961S88.672.039 95.262.039zm0 0" fill="rgb(0%,72.156863%,96.078431%)"/><path d="M95.637 20.02h3.867v-4.98h2.625c3.664 0 5.953-2.184 5.953-5.508s-2.242-5.555-5.836-5.555h-6.609zm3.867-8.035V7.102h1.902c1.734 0 2.664.941 2.664 2.43s-.93 2.457-2.664 2.457zm20.105-2.766h3.914c-.391-3.195-3.234-5.457-6.937-5.457-4.273 0-7.648 3.02-7.648 8.266 0 5.078 3.109 8.219 7.695 8.219 4.117 0 7.07-2.562 7.07-6.867v-2.133h-6.906v2.828h3.172c-.039 1.695-1.211 2.766-3.305 2.766-2.398 0-3.781-1.777-3.781-4.863s1.461-4.816 3.781-4.816c1.547 0 2.602.758 2.945 2.059zm0 0" fill="rgb(100%,100%,100%)"/></svg>